<mxfile host="app.diagrams.net" modified="2021-06-17T06:43:55.482Z" agent="5.0 (Macintosh; Intel Mac OS X 10_15_7) AppleWebKit/537.36 (KHTML, like Gecko) Chrome/91.0.4472.77 Safari/537.36" etag="_4TfHO4asTBCck-b88hb" version="14.7.10" type="github">
  <diagram id="prtHgNgQTEPvFCAcTncT" name="Page-1">
    <mxGraphModel dx="1298" dy="763" grid="1" gridSize="10" guides="1" tooltips="1" connect="1" arrows="1" fold="1" page="1" pageScale="1" pageWidth="827" pageHeight="1169" math="0" shadow="0">
      <root>
        <mxCell id="0" />
        <mxCell id="1" parent="0" />
        <mxCell id="-aP4vUQVJhq0AGDA-ofV-2" value="Icon" style="icon;html=1;image=img/clipart/Gear_128x128.png" vertex="1" parent="1">
          <mxGeometry x="260" y="330" width="60" height="60" as="geometry" />
        </mxCell>
        <mxCell id="-aP4vUQVJhq0AGDA-ofV-3" value="" style="html=1;whiteSpace=wrap;shape=isoCube2;backgroundOutline=1;isoAngle=8.5;" vertex="1" parent="1">
          <mxGeometry x="390" y="170" width="90" height="100" as="geometry" />
        </mxCell>
        <mxCell id="-aP4vUQVJhq0AGDA-ofV-5" value="Security Group" style="fontStyle=0;verticalAlign=top;align=center;spacingTop=-2;fillColor=none;rounded=0;whiteSpace=wrap;html=1;strokeColor=#FF0000;strokeWidth=2;dashed=1;container=1;collapsible=0;expand=0;recursiveResize=0;" vertex="1" parent="1">
          <mxGeometry x="50" y="530" width="600" height="440" as="geometry" />
        </mxCell>
        <mxCell id="-aP4vUQVJhq0AGDA-ofV-6" value="" style="aspect=fixed;perimeter=ellipsePerimeter;html=1;align=center;shadow=0;dashed=0;fontColor=#4277BB;labelBackgroundColor=#ffffff;fontSize=12;spacingTop=3;image;image=img/lib/ibm/security/api_security.svg;" vertex="1" parent="-aP4vUQVJhq0AGDA-ofV-5">
          <mxGeometry x="70" y="100" width="70" height="70" as="geometry" />
        </mxCell>
        <mxCell id="-aP4vUQVJhq0AGDA-ofV-7" value="" style="aspect=fixed;perimeter=ellipsePerimeter;html=1;align=center;shadow=0;dashed=0;fontColor=#4277BB;labelBackgroundColor=#ffffff;fontSize=12;spacingTop=3;image;image=img/lib/ibm/miscellaneous/bluemix.svg;" vertex="1" parent="-aP4vUQVJhq0AGDA-ofV-5">
          <mxGeometry x="360" y="210" width="60" height="60" as="geometry" />
        </mxCell>
        <mxCell id="-aP4vUQVJhq0AGDA-ofV-8" value="" style="verticalLabelPosition=bottom;aspect=fixed;html=1;verticalAlign=top;strokeColor=none;align=center;outlineConnect=0;shape=mxgraph.citrix.storefront_services;fillColor=#CCCCCC;gradientColor=#000000;gradientDirection=south;" vertex="1" parent="-aP4vUQVJhq0AGDA-ofV-5">
          <mxGeometry x="470" y="130" width="76" height="91" as="geometry" />
        </mxCell>
        <mxCell id="-aP4vUQVJhq0AGDA-ofV-9" value="" style="outlineConnect=0;dashed=0;verticalLabelPosition=bottom;verticalAlign=top;align=center;html=1;shape=mxgraph.aws3.vault;fillColor=#E05243;gradientColor=none;" vertex="1" parent="-aP4vUQVJhq0AGDA-ofV-5">
          <mxGeometry x="76" y="290" width="54" height="75" as="geometry" />
        </mxCell>
        <mxCell id="-aP4vUQVJhq0AGDA-ofV-10" value="" style="outlineConnect=0;dashed=0;verticalLabelPosition=bottom;verticalAlign=top;align=center;html=1;shape=mxgraph.aws3.agent;fillColor=#759C3E;gradientColor=none;" vertex="1" parent="-aP4vUQVJhq0AGDA-ofV-5">
          <mxGeometry x="410" y="320" width="69" height="72" as="geometry" />
        </mxCell>
        <mxCell id="-aP4vUQVJhq0AGDA-ofV-16" value="" style="shape=crossbar;whiteSpace=wrap;html=1;rounded=1;direction=south;" vertex="1" parent="-aP4vUQVJhq0AGDA-ofV-5">
          <mxGeometry x="280" y="130" width="20" height="120" as="geometry" />
        </mxCell>
      </root>
    </mxGraphModel>
  </diagram>
</mxfile>
